<mxfile host="app.diagrams.net" modified="2024-01-25T23:27:12.021Z" agent="Mozilla/5.0 (X11; Ubuntu; Linux x86_64; rv:122.0) Gecko/20100101 Firefox/122.0" version="23.0.1" etag="99OoVH1QBX3DYYndO81H" type="github">
  <diagram name="Page-1" id="V84eIhIxFSdYAbKsScVQ">
    <mxGraphModel>
      <root>
        <mxCell id="0" />
        <mxCell id="1" parent="0" />
      </root>
    </mxGraphModel>
  </diagram>
</mxfile>
